<?xml version="1.0" encoding="UTF-8"?>
<!DOCTYPE svg PUBLIC "-//W3C//DTD SVG 1.1//EN" "http://www.w3.org/Graphics/SVG/1.1/DTD/svg11.dtd">
<!-- Creator: CorelDRAW 2019 (64-Bit) -->
<svg xmlns="http://www.w3.org/2000/svg" xml:space="preserve" width="59.9722mm" height="21.9676mm" version="1.1" style="shape-rendering:geometricPrecision; text-rendering:geometricPrecision; image-rendering:optimizeQuality; fill-rule:evenodd; clip-rule:evenodd"
viewBox="0 0 864.01 316.48"
 xmlns:xlink="http://www.w3.org/1999/xlink"
 xmlns:xodm="http://www.corel.com/coreldraw/odm/2003">
 <defs>
  <style type="text/css">
   <![CDATA[
    .fil0 {fill:#D7B56D}
    .fil1 {fill:#D7B56D;fill-rule:nonzero}
   ]]>
  </style>
 </defs>
 <g id="Слой_x0020_1">
  <metadata id="CorelCorpID_0Corel-Layer"/>
  <g id="_2508423954592">
   <g>
    <path class="fil0" d="M832.66 264.07l-2.71 3.22 -13.71 19.73c4.24,0.65 10.42,-1.63 13.64,-3.26 5.56,-2.82 8.15,-5.89 11.08,-7.42 -0.94,3.88 -7.9,9.42 -11.38,11.57 -5.21,3.21 -10.21,4.72 -16.45,6.38l2.8 1.31c1.01,0.3 2.43,0.64 3.61,0.9 10.29,2.26 13.14,1.16 22.14,-0.32l4.97 -2.16c1.26,-1.86 9.67,-5.85 14.65,-19.57 0.96,-2.65 1.39,-6.74 2.69,-9.15l0 -9.41c-6.17,-0.2 -12.3,-0.1 -18.08,1.54 -2.57,0.73 -4.89,1.65 -7.16,2.84 -2.39,1.26 -4.35,3.11 -6.11,3.8z"/>
    <path class="fil0" d="M846.66 294.03l-4.97 2.16 0.94 0.24c-3.61,8.64 -10.11,16.08 -21.6,16.85 -12.37,0.84 -20.55,-6.36 -24.32,-14.05 -7.33,-14.95 2.76,-32.26 17.62,-34.9 4.06,-0.72 13.97,-1.12 15.63,2.95l2.71 -3.22c-13.99,-5.24 -23.57,-4.38 -32.93,4.6 -19.36,18.58 -3.69,51.78 24.01,47.41 6.7,-1.06 11.19,-4.14 14.72,-7.56 4.97,-4.82 5.06,-6.92 8.19,-14.5z"/>
    <path class="fil0" d="M701.65 315.71c5.21,0.46 15.03,0.05 21.16,0.14 5.19,0.08 6.45,0.96 5.96,-1.87 -0.35,-2.06 -7.84,-1.23 -11.54,-1.23 -4.11,0 -8.23,0 -12.34,0l-0.2 -22.53 23.85 -0.01 0.22 -2.82 -23.94 -0.23 -0.12 -22.54 23.89 -0.01 0.15 -2.84 -26.99 -0.2 -0.1 54.15z"/>
    <path class="fil0" d="M783.41 309.1l-1.97 -1.71c-3.85,1.71 -13.56,10.56 -27.54,3.4 -25.88,-13.25 -11.65,-52.78 17.07,-46.05 10.03,2.35 7.62,6.79 12.27,4.17 -0.4,-2.2 -0.27,-1.64 -2.31,-3.02 -1.05,-0.71 -1.99,-1.25 -3.15,-1.85 -2.41,-1.23 -4.62,-2.1 -7.52,-2.64 -16.7,-3.12 -32.82,9.08 -33.03,26.9 -0.34,28.61 34.45,34.96 46.18,20.8z"/>
   </g>
   <g>
    <path class="fil1" d="M121.46 147.53c-7.06,-12.53 -18.16,-24.85 -31.47,-30.51 -22.8,-10.11 -53.06,-6.07 -70.6,12.12 -15.34,15.16 -23.2,37.19 -17.55,58.61 6.45,23.65 27.84,42.64 52.25,46.08 24.07,0 48.14,0 72.22,0 -0.81,-26.67 4.84,-60.83 -4.84,-86.3zm-26.63 6.27c8.88,15.35 4.77,36.88 4.84,55.37 -24.2,-0.7 -55.27,7.27 -68.18,-18.6 -4.44,-8.69 -6.46,-21.42 -2.02,-30.92 5.05,-12.53 17.97,-22.03 31.08,-23.25 12.7,-1.6 26.22,5.46 34.29,17.39z"/>
    <path class="fil1" d="M410.95 28.71l-9.08 20.41c-4.44,-14.35 -16.74,-33.14 -3.03,-47.09 2.22,-3.64 5.25,-1.82 7.26,1.01 6.25,6.67 5.65,16.77 4.84,25.67z"/>
    <path class="fil1" d="M438.59 19.01c-2.42,9.09 -8.07,19.8 -16.54,25.26 -5.04,1.82 -9.68,4.24 -14.52,6.67 3.63,-11.72 10.29,-27.69 24.81,-30.11 2.22,-0.2 3.83,-1.62 6.25,-1.82z"/>
    <path class="fil1" d="M393 41.24c1.21,3.23 2.62,6.47 3.43,9.7l-2.42 0c-12.31,-5.46 -24.81,-14.75 -28.04,-28.5 0.2,-1.01 -1.61,-2.83 0.4,-3.03 10.09,4.85 25.22,8.08 26.63,21.83z"/>
    <path class="fil1" d="M467.04 31.54c-23,14.35 -44.99,32.54 -65.16,53.35 -18.76,-20.21 -40.55,-38.8 -62.94,-52.75 21.79,3.43 39.74,16.17 58.1,28.49l4.24 5.46c19.16,-17.38 41.56,-29.1 65.77,-35.57l0 1.01z"/>
    <path class="fil1" d="M388.76 78.62c4.84,6.47 9.68,12.93 12.51,20.41l1.01 0c18.16,-41.02 63.55,-51.33 102.68,-59.21 26.02,-2.63 52.05,-6.87 78.88,-5.86 -63.87,4.21 -121.39,30.73 -168.4,76.17l0 30.34 -26.55 0 0 -5.79c-0.28,-5.32 -0.39,-10.79 0,-16.21l0 -8.21c-44.66,-45.37 -101.81,-74.9 -164.74,-76.3 31.67,-1.41 58.1,2.02 88.56,6.27 27.84,6.67 55.68,15.36 76.06,38.4z"/>
    <path class="fil1" d="M664.74 141.28c-10.08,-14.96 -25.62,-25.06 -42.16,-28.3 -25.62,-4.04 -48.42,6.27 -62.94,26.27 -11.5,16.17 -13.51,37.59 -7.26,56.18 7.87,19.4 26.02,35.67 46,39.31 25.15,0.2 50.3,0.4 75.45,0.61 -2.22,-29.1 8.47,-68.41 -9.08,-94.08zm-20.98 16.37c6.25,15.97 2.42,34.96 3.43,52.34 -23,-1.21 -52.45,7.68 -66.37,-15.97 -7.06,-11.72 -7.47,-29.3 0.6,-40.62 8.07,-12.13 21.19,-16.37 33.89,-15.56 11.91,1.01 22.8,9.09 28.45,19.8z"/>
    <path class="fil1" d="M251.78 134.81l1.41 0c15.74,-17.58 36.31,-26.47 60.92,-22.23 20.98,4.04 43.58,23.44 48.01,45.07 2.62,24.65 1.01,51.13 1.41,76.59 -7.06,1.82 -11.7,-2.83 -16.95,-5.66 -5.65,-5.26 -8.47,-12.33 -9.28,-20.01 -0.2,-25.06 6.66,-59.62 -22.6,-69.72 -12.91,-5.05 -26.63,-2.02 -36.92,6.67 -23,21.02 -8.27,58.61 -12.51,87.91 -5.65,1.82 -11.9,-0.81 -16.54,-4.45 -17.96,-14.95 -6.05,-42.44 -10.09,-63.05 -2.62,-12.13 -12.71,-24.05 -24.81,-28.09 -11.7,-3.43 -24.61,-0.81 -33.89,6.67 -21.99,16.57 -10.09,47.29 -13.92,70.33 -3.23,8.69 -9.88,16.98 -19.37,19l-6.25 0c3.63,-32.74 -9.88,-74.17 13.52,-99.03 16.34,-20.61 42.97,-27.28 67.79,-20.21 11.3,3.64 21.79,10.31 30.06,20.21z"/>
    <path class="fil1" d="M544.51 112.17c3.23,1.62 0.4,5.46 0.6,8.08 -3.23,8.29 -10.89,14.96 -19.37,16.57 -13.52,0.61 -30.06,-2.83 -39.74,8.69 -21.18,16.98 -9.68,47.49 -13.52,69.92 -2.02,9.09 -11.3,16.78 -19.97,19.4 -1.82,-0.61 -5.04,1.21 -5.65,-1.41l0.4 -68.51c1.19,-26.83 21.75,-47.94 47,-51.33 15.94,-2.63 33.49,-1.01 50.23,-1.41z"/>
    <path class="fil1" d="M802.73 138.85c18.96,25.67 8.07,63.66 11.1,95.99 -6.86,2.63 -13.11,-2.02 -18.36,-6.26 -15.13,-16.17 -5.65,-41.83 -8.27,-61.64 -2.22,-11.92 -11.7,-21.62 -21.79,-26.68 -12.1,-5.46 -27.84,-3.03 -37.73,5.25 -21.59,17.18 -11.3,47.9 -14.52,71.74 -2.42,8.89 -11.7,16.37 -20.38,17.99 -1.82,-0.2 -4.24,0.81 -5.45,-1.01l0.61 -69.32c4.24,-22.63 22.8,-44.26 45.39,-50.32 26.83,-6.47 52.86,2.22 69.4,24.25z"/>
    <path class="fil1" d="M413.37 235.85c-15.35,0 -20.87,-9.34 -25.22,-21.83l0.61 -64.67c8.88,-0.2 15.53,-0.81 24.61,0l0 86.5z"/>
    <path class="fil1" d="M837.44 233.2l0 -22.89 7.85 0c2.01,0 3.44,0.21 4.3,0.62 0.86,0.41 1.57,1.13 2.12,2.14 0.55,1.02 0.83,2.23 0.83,3.64 0,1.79 -0.42,3.23 -1.26,4.33 -0.85,1.09 -2.05,1.78 -3.6,2.06 0.8,0.59 1.46,1.22 1.98,1.91 0.52,0.69 1.24,1.93 2.14,3.73l2.24 4.47 -4.44 0 -2.7 -4.98c-0.97,-1.8 -1.63,-2.93 -1.98,-3.38 -0.35,-0.45 -0.72,-0.76 -1.11,-0.94 -0.39,-0.17 -1.01,-0.26 -1.87,-0.26l-0.77 0 0 9.56 -3.72 0zm3.72 -13.21l2.77 0c1.69,0 2.76,-0.07 3.22,-0.22 0.46,-0.15 0.83,-0.45 1.12,-0.91 0.28,-0.46 0.43,-1.07 0.43,-1.83 0,-0.73 -0.15,-1.32 -0.43,-1.76 -0.29,-0.44 -0.68,-0.75 -1.17,-0.91 -0.35,-0.12 -1.36,-0.17 -3.02,-0.17l-2.92 0 0 5.8zm3.63 -17.48l0.01 0 0 0.01c5.3,0 10.11,2.16 13.58,5.64 3.47,3.47 5.61,8.28 5.62,13.58l0.01 0 0 0.02 0 0.01 -0.01 0c-0,5.31 -2.16,10.13 -5.63,13.61 -3.47,3.47 -8.27,5.62 -13.56,5.63l0 0.01 -0.02 0 -0.01 0 0 -0.01c-5.3,-0 -10.11,-2.16 -13.58,-5.64 -3.47,-3.47 -5.62,-8.28 -5.62,-13.58l-0.01 0 0 -0.02 0 -0.01 0.01 0c0,-5.31 2.15,-10.12 5.63,-13.6l-0 -0c3.47,-3.47 8.27,-5.62 13.57,-5.63l0 -0.01 0.02 0zm0.01 3.68l0 0.01 -0.01 0 -0.02 0 0 -0.01c-4.28,0 -8.16,1.75 -10.97,4.56l-0.01 0c-2.81,2.82 -4.55,6.7 -4.55,11l0.01 0 0 0.01 0 0.02 -0.01 0c0,4.29 1.74,8.18 4.56,11 2.81,2.82 6.69,4.56 10.98,4.56l0 -0.01 0.01 0 0.02 0 0 0.01c4.28,-0 8.16,-1.75 10.98,-4.56 2.81,-2.82 4.55,-6.71 4.55,-11l-0.01 0 0 -0.01 0 -0.02 0.01 0c-0,-4.29 -1.74,-8.18 -4.56,-10.99 -2.81,-2.82 -6.69,-4.56 -10.98,-4.56z"/>
   </g>
   <g>
    <path class="fil1" d="M9.32 281.5l12.79 0 0 8.47 -12.79 0 0 17.37 16.1 0 0 8.47 -25.41 0 0 -59.3 25.41 0 0 8.47 -16.1 0 0 16.52zm20.67 -10.76c0,-4.8 1.14,-8.49 3.43,-11.06 2.29,-2.57 5.72,-3.85 10.29,-3.85 4.57,0 8,1.29 10.29,3.85 2.29,2.57 3.43,6.26 3.43,11.06l0 1.86 -8.81 0 0 -2.46c0,-2.15 -0.41,-3.66 -1.23,-4.53 -0.82,-0.87 -1.96,-1.31 -3.43,-1.31 -1.47,0 -2.61,0.44 -3.43,1.31 -0.82,0.88 -1.23,2.39 -1.23,4.53 0,2.03 0.45,3.83 1.36,5.38 0.9,1.55 2.03,3.02 3.39,4.41 1.36,1.38 2.81,2.77 4.36,4.15 1.55,1.38 3.01,2.89 4.36,4.53 1.36,1.64 2.49,3.5 3.39,5.59 0.9,2.09 1.35,4.55 1.35,7.37 0,4.8 -1.17,8.49 -3.52,11.05 -2.34,2.57 -5.8,3.86 -10.38,3.86 -4.57,0 -8.03,-1.29 -10.38,-3.86 -2.34,-2.57 -3.52,-6.25 -3.52,-11.05l0 -3.64 8.81 0 0 4.24c0,2.15 0.44,3.64 1.31,4.49 0.88,0.85 2.05,1.27 3.52,1.27 1.47,0 2.64,-0.42 3.52,-1.27 0.87,-0.85 1.31,-2.34 1.31,-4.49 0,-2.03 -0.45,-3.83 -1.36,-5.38 -0.9,-1.55 -2.03,-3.02 -3.39,-4.4 -1.35,-1.38 -2.81,-2.77 -4.36,-4.15 -1.55,-1.38 -3.01,-2.89 -4.36,-4.53 -1.36,-1.64 -2.49,-3.5 -3.39,-5.59 -0.9,-2.09 -1.36,-4.55 -1.36,-7.37zm30.16 -14.23l28.8 0 0 8.47 -9.74 0 0 50.83 -9.32 0 0 -50.83 -9.74 0 0 -8.47zm77.6 14.57c0,-2.65 -0.44,-4.45 -1.31,-5.38 -0.88,-0.93 -2.05,-1.4 -3.52,-1.4 -1.47,0 -2.64,0.44 -3.52,1.31 -0.87,0.88 -1.31,2.39 -1.31,4.53l0 6.35 -8.81 0 0 -5.76c0,-4.8 1.17,-8.49 3.52,-11.06 2.34,-2.57 5.8,-3.85 10.38,-3.85 4.57,0 8.03,1.29 10.38,3.85 2.34,2.57 3.52,6.26 3.52,11.06 0,3.11 -0.45,5.92 -1.36,8.43 -0.9,2.51 -2.05,4.8 -3.43,6.86 -1.38,2.06 -2.88,3.97 -4.49,5.72 -1.61,1.75 -3.11,3.42 -4.49,5 -1.38,1.58 -2.53,3.12 -3.43,4.62 -0.9,1.5 -1.36,3.06 -1.36,4.7 0,0.56 0.03,0.99 0.08,1.27l17.62 0 0 8.47 -26.94 0 0 -7.29c0,-2.88 0.45,-5.42 1.36,-7.62 0.9,-2.2 2.05,-4.22 3.43,-6.06 1.38,-1.84 2.87,-3.56 4.45,-5.17 1.58,-1.61 3.06,-3.32 4.45,-5.12 1.38,-1.81 2.53,-3.78 3.43,-5.93 0.9,-2.15 1.36,-4.66 1.36,-7.54zm23.64 31.09c0,2.15 0.44,3.66 1.31,4.53 0.88,0.88 2.05,1.31 3.52,1.31 1.47,0 2.64,-0.44 3.52,-1.31 0.87,-0.88 1.31,-2.39 1.31,-4.53l0 -32.02c0,-2.15 -0.44,-3.66 -1.31,-4.53 -0.88,-0.87 -2.05,-1.31 -3.52,-1.31 -1.47,0 -2.64,0.44 -3.52,1.31 -0.88,0.88 -1.31,2.39 -1.31,4.53l0 32.02zm-9.32 -31.43c0,-4.8 1.21,-8.49 3.64,-11.06 2.43,-2.57 5.93,-3.85 10.5,-3.85 4.58,0 8.08,1.29 10.51,3.85 2.43,2.57 3.64,6.26 3.64,11.06l0 30.84c0,4.8 -1.21,8.49 -3.64,11.05 -2.43,2.57 -5.93,3.86 -10.51,3.86 -4.57,0 -8.07,-1.29 -10.5,-3.86 -2.43,-2.57 -3.64,-6.25 -3.64,-11.05l0 -30.84zm40.07 -6.78c1.81,0 3.29,-0.2 4.45,-0.59 1.16,-0.39 2.1,-0.93 2.84,-1.61 0.73,-0.68 1.33,-1.47 1.78,-2.37 0.45,-0.9 0.85,-1.86 1.19,-2.88l6.27 0 0 59.3 -9.32 0 0 -45.24 -7.2 0 0 -6.61zm36.34 38.21c0,2.15 0.44,3.66 1.31,4.53 0.87,0.88 2.05,1.31 3.52,1.31 1.47,0 2.64,-0.44 3.52,-1.31 0.88,-0.88 1.31,-2.39 1.31,-4.53l0 -32.02c0,-2.15 -0.44,-3.66 -1.31,-4.53 -0.87,-0.87 -2.05,-1.31 -3.52,-1.31 -1.47,0 -2.64,0.44 -3.52,1.31 -0.88,0.88 -1.31,2.39 -1.31,4.53l0 32.02zm-9.32 -31.43c0,-4.8 1.21,-8.49 3.64,-11.06 2.43,-2.57 5.93,-3.85 10.5,-3.85 4.57,0 8.08,1.29 10.5,3.85 2.43,2.57 3.64,6.26 3.64,11.06l0 30.84c0,4.8 -1.21,8.49 -3.64,11.05 -2.43,2.57 -5.93,3.86 -10.5,3.86 -4.57,0 -8.08,-1.29 -10.5,-3.86 -2.43,-2.57 -3.64,-6.25 -3.64,-11.05l0 -30.84z"/>
    <path class="fil1" d="M97.25 259.76l6.32 0c2.01,0 3.5,0.53 4.48,1.6 0.98,1.06 1.47,2.63 1.47,4.68l0 12.85c0,2.06 -0.49,3.62 -1.47,4.68 -0.98,1.06 -2.47,1.6 -4.48,1.6l-6.32 0 0 -25.41zm3.99 3.63l0 18.15 2.25 0c0.63,0 1.13,-0.18 1.49,-0.54 0.36,-0.36 0.54,-1 0.54,-1.92l0 -13.21c0,-0.92 -0.18,-1.56 -0.54,-1.92 -0.36,-0.36 -0.86,-0.54 -1.49,-0.54l-2.25 0zm-5.44 25.08l14.81 0 0 1.65 -14.81 0 0 -1.65z"/>
   </g>
  </g>
 </g>
</svg>
